<svg xmlns="http://www.w3.org/2000/svg" viewBox="0 0 24 24"><defs><linearGradient id="a" x1="3.515" y1="3.515" x2="20.485" y2="20.485" gradientUnits="userSpaceOnUse"><stop offset="0" stop-color="#ffc926"/><stop offset="1" stop-color="#cc1faf"/></linearGradient></defs><circle cx="12" cy="12" r="12" fill="url(#a)"/><path d="M12 10.5a1.5 1.5 0 1 1-1.5 1.5 1.502 1.502 0 0 1 1.5-1.5M12 8a4 4 0 1 0 4 4 4 4 0 0 0-4-4ZM2.5 12.5A.5.5 0 0 1 2 12 10.011 10.011 0 0 1 12 2a.5.5 0 0 1 0 1 9.01 9.01 0 0 0-9 9 .5.5 0 0 1-.5.5Z" fill="#fff"/><path d="M5.5 12.5A.5.5 0 0 1 5 12a7.008 7.008 0 0 1 7-7 .5.5 0 0 1 0 1 6.007 6.007 0 0 0-6 6 .5.5 0 0 1-.5.5ZM18.5 11.5a.5.5 0 0 1 .5.5 7.008 7.008 0 0 1-7 7 .5.5 0 0 1 0-1 6.007 6.007 0 0 0 6-6 .5.5 0 0 1 .5-.5Z" fill="#fff"/><path d="M21.5 11.5a.5.5 0 0 1 .5.5 10.011 10.011 0 0 1-10 10 .5.5 0 0 1 0-1 9.01 9.01 0 0 0 9-9 .5.5 0 0 1 .5-.5Z" fill="#fff"/></svg>